# xmcd
#
# Track frame offsets: 
#        150
#        19152
#        37532
#        56322
#        56852
#        57380
#        57890
#        58420
#        58942
#        59480
#        60045
#        60577
#        61105
#        61695
#        62227
#        62757
#        63450
#
# Disc length: 850 seconds
#
# Revision: 0
# Processed by: cddbd v1.4PL0 Copyright (c) Steve Scherf et al.
# Submitted via: ExactAudioCopy v0.90b3
#
DISCID=f7035011
DTITLE=Toby Keith - Club Mix Sampler
DYEAR=1900
DGENRE=Country
TTITLE0=How Do You Like Me Now (Club Mix)
TTITLE1=Die With Your Boots On (Club Mix)
TTITLE2=Country Comes To Town (Club Mix)
TTITLE3=Two Step Liner
TTITLE4=Cha Cha Liner
TTITLE5=Waltz Liner
TTITLE6=Line Dance Liner
TTITLE7=New Album Liner
TTITLE8=New Album/Country Comes To Town Liner
TTITLE9=Bartender/New Single Liner
TTITLE10=Let's Dance Liner
TTITLE11=Cold Drink Liner
TTITLE12=How Do You Like Me Know Dance Floor Liner
TTITLE13=Great Two Step Liner
TTITLE14=Don't Drink And Drive PSA
TTITLE15=Need A Ride PSA
TTITLE16=Bartender/New Single Liner
EXTD=
EXTT0=
EXTT1=
EXTT2=
EXTT3=
EXTT4=
EXTT5=
EXTT6=
EXTT7=
EXTT8=
EXTT9=
EXTT10=
EXTT11=
EXTT12=
EXTT13=
EXTT14=
EXTT15=
EXTT16=
PLAYORDER=
